<?xml version="1.0" encoding="UTF-8"?>
<svg id="Camada_3" xmlns="http://www.w3.org/2000/svg" version="1.1" viewBox="0 0 1647.9 1944.7">
  <!-- Generator: Adobe Illustrator 30.6.0, SVG Export Plug-In . SVG Version: 2.1.4 Build 109)  -->
  <defs>
    <style>
      .st0 {
        fill: #fff;
      }
    </style>
  </defs>
  <path d="M824,1944.7l-8.9-2.5c-314.6-89.4-561.5-250.4-687.6-371.3C-3.4,1445.4-2,1275.8.7,967.9c.4-48.2.8-98.1.8-152.7V0h1644.9v815.2c0,54.5.4,104.4.8,152.5,2.6,308,4.1,477.6-126.7,603-126.1,120.9-373,282-687.6,371.3l-8.9,2.5ZM66.9,65.4v749.8c0,54.8-.4,104.9-.8,153.2-2.6,299.1-3.8,449.3,106.6,555.2,119.3,114.3,352.5,266.5,651.3,353.1,298.9-86.6,532.1-238.7,651.3-353.1,110.4-105.9,109.2-256.1,106.6-555.3-.4-48.3-.8-98.3-.8-153.1V65.4H66.9Z"/>
  <path d="M296.4,445c0,22.4-7.9,41.9-23.6,58.4-14.4,14.9-29.8,22.4-46,22.4s-2-.4-2-1.2v-36.4c0-2.1.7-3.2,2-3.2,8-1.9,14.8-6,20.4-12.4,6.4-7.5,9.6-16.8,9.6-28,0-19.5-14.5-32.4-43.6-38.8-22.4-2.7-40.7-10.9-54.8-24.8-15.2-14.7-22.8-33.4-22.8-56s8.7-45.4,26-60.8c13.9-12.3,28.2-18.4,42.8-18.4s2.8.5,2.8,1.6v36.8c0,1.3-.8,2-2.4,2-6.1,1.3-12,4.7-17.6,10-7.7,7.5-11.6,16.9-11.6,28.4s4.5,22.3,13.6,29.2c6.7,5.3,17.3,9.9,32,13.6,20.8,2.9,37.9,10.3,51.2,22,16,13.9,24,32.4,24,55.6h0ZM203.2,525.9c-29.1-2.1-51.6-14.7-67.6-37.6-.3-.3-.4-.7-.4-1.2s.1-.9.4-1.2l28-22.4c.8-.5,1.5-.5,2,0,9.6,12.3,22,19.5,37.2,21.6,1.6,0,2.5,1.1,2.8,3.2v36.4c0,.8-.8,1.2-2.4,1.2h0ZM227.6,245.7c29.1,2.4,51.6,14.7,67.6,36.8.8.8.8,1.6,0,2.4l-27.6,23.2c-1.3.5-2.3.5-2.8,0-8.5-12.5-20.8-20-36.8-22.4-1.6,0-2.5-1.1-2.8-3.2v-35.6c0-.8.8-1.2,2.4-1.2Z"/>
  <path d="M363.9,525.9h-36c-1.9,0-2.8-.8-2.8-2.4V248.5c0-1.9.8-2.8,2.4-2.8h36.8c1.6,0,2.4.7,2.4,2v275.4c0,1.9-.9,2.8-2.8,2.8h0ZM384.3,282.5v-34c0-1.9.8-2.8,2.4-2.8h95.7c1.9,0,2.8.8,2.8,2.4v34.8c0,1.6-.7,2.4-2,2.4h-96.5c-1.6,0-2.4-.9-2.4-2.8h0ZM384.3,523.1v-34c0-1.9.8-2.8,2.4-2.8h95.7c1.9,0,2.8.8,2.8,2.4v34.8c0,1.6-.7,2.4-2,2.4h-96.5c-1.6,0-2.4-.9-2.4-2.8h0ZM384.3,403.4v-34c0-1.9.8-2.8,2.4-2.8h64.4c1.9,0,2.8.8,2.8,2.4v34.8c0,1.6-.7,2.4-2,2.4h-65.2c-1.6,0-2.4-.9-2.4-2.8Z"/>
  <path d="M580.3,285.7c-18.1,4.3-27.2,18.4-27.2,42.4v115.3c0,24.3,9.1,38.4,27.2,42.4,1.9.5,2.8,1.5,2.8,2.8v34.8c0,1.9-.9,2.7-2.8,2.4-45.9-6.1-68.8-34.3-68.8-84.5v-111.3c0-24,5.9-43.4,17.6-58.2,11.7-14.8,28.8-23.5,51.2-26.2,1.9-.3,2.8.5,2.8,2.4v34.8c0,1.3-.9,2.3-2.8,2.8h0ZM604.3,285.5c-1.9-.3-2.8-1.2-2.8-2.8v-34.6c0-1.9.9-2.7,2.8-2.4,22.4,2.7,39.8,11.5,52,26.7,11.2,14.1,16.8,31.4,16.8,51.8s-.8,2.4-2.4,2.4h-36.4c-1.9,0-2.8-.8-2.8-2.4-.5-22-9.6-34.9-27.2-38.6h0ZM604.3,485.7c17.6-3.7,26.7-16.7,27.2-39,0-1.6.9-2.4,2.8-2.4h36.4c1.6,0,2.4.8,2.4,2.4,0,20.7-5.6,38.1-16.8,52.3-12.3,15.3-29.6,24.3-52,27-1.9.3-2.8-.5-2.8-2.4v-35c0-1.6.9-2.5,2.8-2.8Z"/>
  <path d="M743.1,248.1v195.3c0,24,9.6,38.2,28.8,42.4,1.9.5,2.8,1.5,2.8,2.8v35.2c0,1.9-.9,2.7-2.8,2.4-22.4-2.9-39.5-11.8-51.2-26.6-11.7-14.8-17.6-34.2-17.6-58.2v-193.3c0-1.6.8-2.4,2.4-2.4h35.2c1.6,0,2.4.8,2.4,2.4h0ZM824,248.1c0-1.6.8-2.4,2.4-2.4h35.2c1.6,0,2.4.8,2.4,2.4v193.3c0,24-5.9,43.4-17.6,58.2-11.7,14.8-28.8,23.7-51.2,26.6-1.9.3-2.8-.5-2.8-2.4v-35.2c0-1.3.9-2.3,2.8-2.8,19.2-4.3,28.8-18.4,28.8-42.4v-195.3Z"/>
  <path d="M935.1,525.9h-36c-1.9,0-2.8-.8-2.8-2.4V248.5c0-1.9.8-2.8,2.4-2.8h36.8c1.6,0,2.4.7,2.4,2v275.4c0,1.9-.9,2.8-2.8,2.8h0ZM974.7,285.7h-15.6c-1.9,0-2.8-.9-2.8-2.8v-34.4c0-1.9.9-2.8,2.8-2.8h16c23.2,0,42.6,6.8,58,20.4,16.3,14.6,24.4,34.1,24.4,58.3s-4.7,34.6-14,48.4c-8,12-18.8,21.1-32.4,27.2l46.4,121.9c1.3,2.7.5,4-2.4,4h-40c-.8,0-1.3-.5-1.6-1.6l-39.6-116.5h-14.8c-1.9,0-2.8-.9-2.8-2.8v-34.4c0-1.9.9-2.8,2.8-2.8h15.6c12,0,21.9-4.1,29.8-12.4,7.9-8.3,11.8-18.1,11.8-29.6s-3.7-20.7-11.2-28.4c-7.5-7.7-17.6-11.6-30.4-11.6Z"/>
  <path d="M1127.5,525.9h-36c-1.9,0-2.8-.8-2.8-2.4V248.5c0-1.9.8-2.8,2.4-2.8h36.8c1.6,0,2.4.7,2.4,2v275.4c0,1.9-.9,2.8-2.8,2.8Z"/>
  <path d="M1247.4,525.9h-36c-1.9,0-2.8-.8-2.8-2.4v-237.8h-46.8c-1.9,0-2.8-.8-2.8-2.4v-34.8c0-1.9.8-2.8,2.4-2.8h136.5c1.6,0,2.4.7,2.4,2v35.2c0,1.9-.9,2.8-2.8,2.8h-47.2v237.4c0,1.9-.9,2.8-2.8,2.8Z"/>
  <path d="M1425,525.9h-36.8c-.8,0-1.2-.5-1.2-1.6v-95.3l-63.6-180.5c-.8-1.9-.3-2.8,1.6-2.8h39.2c1.1,0,1.9.5,2.4,1.6l60.4,174.9v101.3c0,1.6-.7,2.4-2,2.4h0ZM1451.4,245.7h37.2c2.7,0,3.5.9,2.4,2.8l-51.2,142.5c-1.3,3.5-2.7,3.9-4,1.2l-18.8-56.4,32-86.9c.8-2.1,1.6-3.2,2.4-3.2Z"/>
  <path d="M281.2,879.8h-138.7c-1.9,0-2.9-.8-2.9-2.5v-284.5c0-1.9.8-2.9,2.5-2.9h38.1c1.7,0,2.5.7,2.5,2.1v245.6h98.6c1.9,0,2.9,1,2.9,2.9v36.4c0,1.9-1,2.9-2.9,2.9Z"/>
  <path d="M354,879.8h-37.3c-1.9,0-2.9-.8-2.9-2.5v-284.5c0-1.9.8-2.9,2.5-2.9h38.1c1.7,0,2.5.7,2.5,2.1v284.9c0,1.9-1,2.9-2.9,2.9h0ZM375.1,628v-35.2c0-1.9.8-2.9,2.5-2.9h99c1.9,0,2.9.8,2.9,2.5v36c0,1.7-.7,2.5-2.1,2.5h-99.8c-1.7,0-2.5-1-2.5-2.9h0ZM375.1,876.9v-35.2c0-1.9.8-2.9,2.5-2.9h99c1.9,0,2.9.8,2.9,2.5v36c0,1.7-.7,2.5-2.1,2.5h-99.8c-1.7,0-2.5-1-2.5-2.9h0ZM375.1,753.1v-35.2c0-1.9.8-2.9,2.5-2.9h66.7c1.9,0,2.9.8,2.9,2.5v36c0,1.7-.7,2.5-2.1,2.5h-67.5c-1.7,0-2.5-1-2.5-2.9Z"/>
  <path d="M713.8,879.8h-44.3c-.3-.3-.7-.8-1.2-1.7l-81.6-284.9c-.6-2.2-.1-3.3,1.2-3.3h40.2c.6,0,1.1.6,1.7,1.7l84.5,286.2c.3,1.4.1,2.1-.4,2.1h0ZM545.2,879.8h-39.3c-1.9,0-2.9-.8-2.9-2.5l70-247.2c.3-.8.8-1.2,1.7-1.2s1.4.4,1.7,1.2l19.9,72.1-20.7,74.1h43.5c.3,0,.7.3,1.2.8l10.8,41c.3,1.1-.1,1.7-1.2,1.7h-67.1l-15.7,59.2c-.3.6-.8.8-1.7.8Z"/>
  <path d="M822.9,631.3h-16.2c-1.9,0-2.9-1-2.9-2.9v-35.6c0-1.9,1-2.9,2.9-2.9h18.6c26.8,0,47.8,8.3,62.9,24.8,13.5,14.9,20.3,34,20.3,57.2v125.1c0,25.4-7.9,45.6-23.6,60.5-15.7,14.9-35.6,22.4-59.6,22.4h-18.6c-1.9,0-2.9-1-2.9-2.9v-35.6c0-1.9,1-2.9,2.9-2.9h16.2c12.7,0,23-3.9,30.9-11.6,7.9-7.7,11.8-17.5,11.8-29.4l.4-124.7c0-11-3.6-20.4-10.8-28.2-8-8.8-18.8-13.3-32.3-13.3h0ZM784.4,879.8h-37.3c-1.9,0-2.9-.8-2.9-2.5v-284.5c0-1.9.8-2.9,2.5-2.9h38.1c1.7,0,2.5.7,2.5,2.1v284.9c0,1.9-1,2.9-2.9,2.9Z"/>
  <path d="M978.4,879.8h-37.3c-1.9,0-2.9-.8-2.9-2.5v-284.5c0-1.9.8-2.9,2.5-2.9h38.1c1.7,0,2.5.7,2.5,2.1v284.9c0,1.9-1,2.9-2.9,2.9h0ZM999.6,628v-35.2c0-1.9.8-2.9,2.5-2.9h99c1.9,0,2.9.8,2.9,2.5v36c0,1.7-.7,2.5-2.1,2.5h-99.8c-1.7,0-2.5-1-2.5-2.9h0ZM999.6,876.9v-35.2c0-1.9.8-2.9,2.5-2.9h99c1.9,0,2.9.8,2.9,2.5v36c0,1.7-.7,2.5-2.1,2.5h-99.8c-1.7,0-2.5-1-2.5-2.9h0ZM999.6,753.1v-35.2c0-1.9.8-2.9,2.5-2.9h66.7c1.9,0,2.9.8,2.9,2.5v36c0,1.7-.7,2.5-2.1,2.5h-67.5c-1.7,0-2.5-1-2.5-2.9Z"/>
  <path d="M1173.8,879.8h-37.3c-1.9,0-2.9-.8-2.9-2.5v-284.5c0-1.9.8-2.9,2.5-2.9h38.1c1.7,0,2.5.7,2.5,2.1v284.9c0,1.9-1,2.9-2.9,2.9h0ZM1214.8,631.3h-16.2c-1.9,0-2.9-1-2.9-2.9v-35.6c0-1.9,1-2.9,2.9-2.9h16.6c24,0,44,7,60,21.1,16.8,15.1,25.3,35.3,25.3,60.3s-4.8,35.8-14.5,50c-8.3,12.4-19.5,21.8-33.5,28.2l48,126.1c1.4,2.8.6,4.1-2.5,4.1h-41.4c-.8,0-1.4-.6-1.7-1.7l-41-120.5h-15.3c-1.9,0-2.9-1-2.9-2.9v-35.6c0-1.9,1-2.9,2.9-2.9h16.2c12.4,0,22.7-4.3,30.9-12.8,8.1-8.6,12.2-18.8,12.2-30.6s-3.9-21.4-11.6-29.4c-7.7-8-18.2-12-31.5-12Z"/>
  <path d="M1493.3,796.2c0,23.2-8.1,43.3-24.4,60.5-14.9,15.5-30.8,23.2-47.6,23.2s-2.1-.4-2.1-1.2v-37.7c0-2.2.7-3.3,2.1-3.3,8.3-1.9,15.3-6.2,21.1-12.8,6.6-7.7,9.9-17.4,9.9-29,0-20.2-15-33.5-45.1-40.2-23.2-2.8-42.1-11.3-56.7-25.7-15.7-15.2-23.6-34.5-23.6-58s9-46.9,26.9-62.9c14.4-12.7,29.1-19.1,44.3-19.1s2.9.6,2.9,1.7v38.1c0,1.4-.8,2.1-2.5,2.1-6.4,1.4-12.4,4.8-18.2,10.4-8,7.7-12,17.5-12,29.4s4.7,23.1,14.1,30.2c6.9,5.5,17.9,10.2,33.1,14.1,21.5,3,39.2,10.6,53,22.8,16.6,14.4,24.8,33.5,24.8,57.6h0ZM1396.8,879.8c-30.1-2.2-53.4-15.2-70-38.9-.3-.3-.4-.7-.4-1.2s.1-1,.4-1.2l29-23.2c.8-.6,1.5-.6,2.1,0,9.9,12.7,22.8,20.2,38.5,22.4,1.7,0,2.6,1.1,2.9,3.3v37.7c0,.8-.8,1.2-2.5,1.2h0ZM1422.1,589.9c30.1,2.5,53.4,15.2,70,38.1.8.8.8,1.7,0,2.5l-28.6,24c-1.4.6-2.3.6-2.9,0-8.8-13-21.5-20.7-38.1-23.2-1.7,0-2.6-1.1-2.9-3.3v-36.9c0-.8.8-1.2,2.5-1.2Z"/>
  <path d="M804.5,1142.7c-322.5,0-584,73.9-584,165s261.4,165,584,165,584-73.9,584-165-261.4-165-584-165h0ZM795.3,1388.2h0c-268,0-485.2-51.1-485.2-114.2s217.2-114.2,485.2-114.2,485.2,51.1,485.2,114.2-217.2,114.2-485.2,114.2Z"/>
  <g>
    <path d="M1038.6,965.1l-90.2,36c0,37.6.2,329.7.2,332.1l90.2,35.9c0-2.8-.2-358.4-.2-404Z"/>
    <path d="M1038.6,965.1c0,45.6.2,401.2.2,404,1.2-.4,107.5-40.9,116.3-44.2l-.2-315.7c-8.8-3.3-115.2-43.7-116.4-44.1Z"/>
  </g>
  <g>
    <path d="M563.9,965.1l90.2,36c0,37.6-.2,329.7-.2,332.1l-90.2,35.9c0-2.8.2-358.4.2-404Z"/>
    <path d="M563.9,965.1c0,45.6-.2,401.2-.2,404-1.2-.4-107.5-40.9-116.3-44.2l.2-315.7c8.8-3.3,115.2-43.7,116.4-44.1Z"/>
  </g>
  <g>
    <path d="M821.5,856.9l132.8,53c0,55.3-.3,485.4-.3,488.8l-132.8,52.9c0-4.1.3-527.5.4-594.7Z"/>
    <path d="M821.5,856.9c0,67.2-.4,590.5-.4,594.7-1.7-.6-158.2-60.1-171.2-65.1l.3-464.7c13-4.9,169.6-64.3,171.3-64.9Z"/>
  </g>
  <g>
    <path class="st0" d="M1155,1006.1c-8.8-3.3-19.3-7.3-30.5-11.5-11.7-4.4-24.2-9.2-36.1-13.7-12.5-4.7-24.1-9.1-33.1-12.5-9.3-3.5-15.5-5.9-16.7-6.3v12.8c1.2.4,7.4,2.6,16.7,5.9,9,3.2,20.6,7.3,33.1,11.7,11.8,4.2,24.3,8.6,36.1,12.8,11.2,4,21.7,7.7,30.5,10.8v-10Z"/>
    <path class="st0" d="M1155,1041.8v-10c-8.8-2.8-19.3-6.1-30.5-9.7-11.7-3.7-24.2-7.7-36.1-11.5-12.5-3.9-24.1-7.6-33.1-10.5-9.3-2.9-15.6-4.9-16.7-5.3v12.8c1.2.3,7.4,2.2,16.7,4.9,9,2.6,20.6,6.1,33.1,9.7,11.8,3.5,24.4,7.2,36.1,10.6,11.2,3.3,21.7,6.4,30.5,9Z"/>
    <path class="st0" d="M1155,1067.5v-10c-8.8-2.3-19.4-4.9-30.5-7.8-11.7-3-24.3-6.2-36.1-9.2-12.5-3.2-24.1-6.2-33.1-8.5-9.3-2.4-15.5-4-16.7-4.3v12.8c1.1.3,7.4,1.7,16.7,3.9,9,2.1,20.6,4.8,33.1,7.7,11.9,2.7,24.4,5.7,36.1,8.4,11.2,2.6,21.7,5,30.5,7.1Z"/>
    <path class="st0" d="M1155,1093.3v-10c-8.8-1.7-19.3-3.8-30.5-5.9-11.7-2.3-24.2-4.7-36.1-7-12.4-2.4-24.1-4.7-33.1-6.4-9.3-1.8-15.5-3-16.7-3.3v12.7c1.2.2,7.4,1.3,16.7,2.9,9,1.5,20.6,3.5,33.1,5.7,11.8,2,24.3,4.2,36.1,6.2,11.2,1.9,21.7,3.7,30.5,5.2Z"/>
    <path class="st0" d="M1155,1119v-10c-8.8-1.2-19.3-2.6-30.5-4.1-11.7-1.6-24.2-3.2-36.1-4.8-12.5-1.7-24.1-3.2-33.1-4.4-9.3-1.2-15.5-2.1-16.7-2.2v12.7c1.1.1,7.4.8,16.7,1.8,9,1,20.6,2.3,33.1,3.6,11.8,1.3,24.3,2.7,36.1,4,11.2,1.2,21.7,2.4,30.5,3.4Z"/>
    <path class="st0" d="M1155,1144.7v-10c-8.8-.6-19.3-1.4-30.5-2.2-11.7-.8-24.2-1.8-36.1-2.6-12.5-.9-24.1-1.7-33.1-2.4-9.3-.7-15.5-1.1-16.7-1.2v12.7c1.2,0,7.4.4,16.7.8,9,.4,20.6,1,33.1,1.6,11.8.6,24.3,1.2,36.1,1.8,11.1.5,21.7,1.1,30.5,1.5Z"/>
    <path class="st0" d="M1155.2,1324.9v-10c-8.8,3.1-19.3,6.9-30.5,10.9-11.7,4.2-24.2,8.6-36.1,12.8-12.5,4.4-24.1,8.6-33.1,11.8-9.3,3.3-15.5,5.5-16.7,5.9v12.7c1.2-.4,7.4-2.8,16.7-6.4,9-3.4,20.6-7.8,33.1-12.6,11.8-4.5,24.3-9.2,36.1-13.7,11.2-4.2,21.7-8.2,30.5-11.6Z"/>
    <path class="st0" d="M1155.1,1299.2v-10c-8.8,2.6-19.3,5.7-30.5,9-11.7,3.5-24.2,7.1-36.1,10.6-12.5,3.7-24.1,7.1-33.1,9.8-9.3,2.7-15.6,4.6-16.7,4.9v12.7c1.2-.4,7.4-2.3,16.7-5.3,9-2.9,20.6-6.6,33.1-10.6,11.8-3.8,24.3-7.8,36.1-11.5,11.2-3.6,21.7-6.9,30.5-9.7Z"/>
    <path class="st0" d="M1155.1,1273.4v-10c-8.8,2.1-19.3,4.5-30.5,7.1-11.7,2.7-24.2,5.7-36.1,8.4-12.4,2.9-24.1,5.6-33.1,7.7-9.3,2.2-15.6,3.6-16.7,3.9v12.7c1.2-.3,7.4-1.9,16.7-4.3,9-2.3,20.6-5.3,33.1-8.5,11.8-3,24.3-6.3,36.1-9.3,11.1-2.9,21.7-5.6,30.5-7.9Z"/>
    <path class="st0" d="M1155.1,1247.7v-10c-8.8,1.5-19.3,3.3-30.5,5.2-11.7,2-24.2,4.2-36,6.2-12.5,2.2-24.1,4.2-33.1,5.7-9.3,1.6-15.5,2.7-16.7,2.9v12.7c1.2-.2,7.4-1.5,16.7-3.3,9-1.8,20.6-4,33.1-6.5,11.9-2.3,24.3-4.8,36.1-7.1,11.1-2.2,21.7-4.2,30.5-6Z"/>
    <path class="st0" d="M1155.1,1222v-10c-8.8,1-19.4,2.2-30.5,3.4-11.7,1.3-24.2,2.7-36.1,4-12.4,1.4-24.1,2.7-33.1,3.7-9.3,1-15.5,1.7-16.7,1.8v12.7c1.2-.2,7.4-1,16.7-2.3,9-1.2,20.6-2.8,33.1-4.5,11.8-1.6,24.3-3.3,36.1-4.9,11.2-1.5,21.7-2.9,30.5-4.1Z"/>
    <path class="st0" d="M1155.1,1196.2v-10c-8.8.5-19.4,1-30.5,1.5-11.7.6-24.2,1.2-36.1,1.8-12.4.6-24.1,1.2-33.1,1.7-9.3.5-15.5.8-16.7.8v12.7c1.2,0,7.4-.5,16.7-1.2,9-.7,20.6-1.5,33.1-2.4,11.8-.9,24.3-1.8,36.1-2.7,11.2-.8,21.7-1.6,30.5-2.2Z"/>
    <path class="st0" d="M1155.1,1170.5v-10c-8.8-.1-19.4-.2-30.5-.3-11.7-.1-24.2-.3-36.1-.4-12.5-.1-24.1-.3-33.1-.4-9.3-.1-15.5-.2-16.7-.2v12.7c1.1,0,7.4,0,16.7-.2,9-.1,20.6-.3,33.1-.4,11.8-.2,24.3-.3,36.1-.5,11.2-.1,21.7-.3,30.5-.4Z"/>
  </g>
  <g>
    <path class="st0" d="M447.6,1006.1c8.8-3.3,19.3-7.3,30.5-11.5,11.7-4.4,24.2-9.2,36.1-13.7,12.5-4.7,24.1-9.1,33.1-12.5,9.3-3.5,15.6-5.9,16.7-6.3v12.8c-1.2.4-7.4,2.6-16.7,5.9-9,3.2-20.6,7.3-33.1,11.7-11.8,4.2-24.3,8.6-36.1,12.8-11.2,4-21.7,7.7-30.5,10.8v-10Z"/>
    <path class="st0" d="M447.5,1041.8v-10c8.8-2.8,19.3-6.1,30.5-9.7,11.7-3.7,24.2-7.7,36.1-11.5,12.5-3.9,24.1-7.6,33.1-10.5,9.3-2.9,15.6-4.9,16.7-5.3v12.8c-1.2.3-7.4,2.2-16.7,4.9-9,2.6-20.6,6.1-33.1,9.7-11.8,3.5-24.4,7.2-36.1,10.6-11.2,3.3-21.7,6.4-30.5,9Z"/>
    <path class="st0" d="M447.5,1067.5v-10c8.8-2.3,19.4-4.9,30.5-7.8,11.7-3,24.2-6.2,36.1-9.2,12.5-3.2,24.1-6.2,33.1-8.5,9.3-2.4,15.5-4,16.7-4.3v12.8c-1.1.3-7.4,1.7-16.7,3.9-9,2.1-20.6,4.8-33.1,7.7-11.9,2.7-24.3,5.7-36.1,8.4-11.2,2.6-21.7,5-30.5,7.1Z"/>
    <path class="st0" d="M447.5,1093.3v-10c8.8-1.7,19.3-3.8,30.5-5.9,11.7-2.3,24.2-4.7,36.1-7,12.5-2.4,24.1-4.7,33.1-6.4,9.3-1.8,15.5-3,16.7-3.3v12.7c-1.2.2-7.4,1.3-16.7,2.9-9,1.5-20.6,3.5-33.1,5.7-11.8,2-24.3,4.2-36.1,6.2-11.2,1.9-21.7,3.7-30.5,5.2Z"/>
    <path class="st0" d="M447.5,1119v-10c8.8-1.2,19.3-2.6,30.5-4.1,11.7-1.6,24.2-3.2,36.1-4.8,12.5-1.7,24.1-3.2,33.1-4.4,9.3-1.2,15.5-2.1,16.7-2.2v12.7c-1.1.1-7.4.8-16.7,1.8-9,1-20.6,2.3-33.1,3.6-11.8,1.3-24.3,2.7-36.1,4-11.2,1.2-21.7,2.4-30.5,3.4Z"/>
    <path class="st0" d="M447.5,1144.7v-10c8.8-.6,19.3-1.4,30.5-2.2,11.7-.8,24.2-1.8,36.1-2.6,12.5-.9,24.1-1.7,33.1-2.4,9.3-.7,15.5-1.1,16.7-1.2v12.7c-1.2,0-7.4.4-16.7.8-9,.4-20.6,1-33.1,1.6-11.8.6-24.3,1.2-36.1,1.8-11.1.5-21.7,1.1-30.5,1.5Z"/>
    <path class="st0" d="M447.4,1324.9v-10c8.8,3.1,19.3,6.9,30.5,10.9,11.7,4.2,24.2,8.6,36.1,12.8,12.4,4.4,24.1,8.6,33.1,11.8,9.3,3.3,15.5,5.5,16.7,5.9v12.7c-1.2-.4-7.4-2.8-16.7-6.4-9-3.4-20.6-7.8-33.1-12.6-11.8-4.5-24.3-9.2-36.1-13.7-11.2-4.2-21.7-8.2-30.5-11.6Z"/>
    <path class="st0" d="M447.4,1299.2v-10c8.8,2.6,19.3,5.7,30.5,9,11.7,3.5,24.2,7.1,36.1,10.6,12.5,3.7,24.1,7.1,33.1,9.8,9.3,2.7,15.6,4.6,16.7,4.9v12.7c-1.2-.4-7.4-2.3-16.7-5.3-9-2.9-20.6-6.6-33.1-10.6-11.8-3.8-24.3-7.8-36.1-11.5-11.2-3.6-21.7-6.9-30.5-9.7Z"/>
    <path class="st0" d="M447.4,1273.4v-10c8.8,2.1,19.3,4.5,30.5,7.1,11.7,2.7,24.2,5.7,36.1,8.4,12.4,2.9,24.1,5.6,33.1,7.7,9.3,2.2,15.6,3.6,16.7,3.9v12.7c-1.2-.3-7.4-1.9-16.7-4.3-9-2.3-20.6-5.3-33.1-8.5-11.8-3-24.3-6.3-36.1-9.3-11.1-2.9-21.7-5.6-30.5-7.9Z"/>
    <path class="st0" d="M447.4,1247.7v-10c8.8,1.5,19.3,3.3,30.5,5.2,11.7,2,24.2,4.2,36,6.2,12.5,2.2,24.1,4.2,33.1,5.7,9.3,1.6,15.6,2.7,16.7,2.9v12.7c-1.2-.2-7.4-1.5-16.7-3.3-9-1.8-20.6-4-33.1-6.5-11.9-2.3-24.3-4.8-36.1-7.1-11.1-2.2-21.7-4.2-30.5-6Z"/>
    <path class="st0" d="M447.4,1222v-10c8.8,1,19.4,2.2,30.5,3.4,11.7,1.3,24.2,2.7,36.1,4,12.4,1.4,24.1,2.7,33.1,3.7,9.3,1,15.5,1.7,16.7,1.8v12.7c-1.2-.2-7.4-1-16.7-2.3-9-1.2-20.6-2.8-33.1-4.5-11.8-1.6-24.3-3.3-36.1-4.9-11.2-1.5-21.7-2.9-30.5-4.1Z"/>
    <path class="st0" d="M447.4,1196.2v-10c8.8.5,19.4,1,30.5,1.5,11.7.6,24.2,1.2,36.1,1.8,12.4.6,24.1,1.2,33.1,1.7,9.3.5,15.5.8,16.7.8v12.7c-1.2,0-7.4-.5-16.7-1.2-9-.7-20.6-1.5-33.1-2.4-11.8-.9-24.3-1.8-36.1-2.7-11.2-.8-21.7-1.6-30.5-2.2Z"/>
    <path class="st0" d="M447.5,1170.5v-10c8.8-.1,19.4-.2,30.5-.3,11.7-.1,24.2-.3,36.1-.4,12.5-.1,24.1-.3,33.1-.4,9.3-.1,15.5-.2,16.7-.2v12.7c-1.1,0-7.4,0-16.7-.2-9-.1-20.6-.3-33.1-.4-11.8-.2-24.3-.3-36.1-.5-11.2-.1-21.7-.3-30.5-.4Z"/>
  </g>
  <g>
    <polygon class="st0" points="821.5 852.3 954.3 905.3 954.3 920.8 821.5 871.1 821.5 852.3"/>
    <path class="st0" d="M650.3,917.1c13-4.9,28.5-10.8,44.9-17,17.3-6.5,35.7-13.5,53.1-20.1,18.3-6.9,35.5-13.4,48.7-18.4,13.7-5.2,22.9-8.7,24.6-9.3v18.8c-1.7.6-10.9,3.9-24.6,8.7-13.2,4.7-30.3,10.8-48.7,17.3-17.4,6.2-35.8,12.7-53.1,18.8-16.4,5.8-31.9,11.3-44.9,15.9v-14.7Z"/>
    <polygon class="st0" points="821.5 900.7 954.3 945.1 954.3 960.6 821.5 919.4 821.5 900.7"/>
    <path class="st0" d="M650.2,969.7v-14.7c13-4.1,28.5-9,44.9-14.3,17.3-5.5,35.7-11.3,53.1-16.9,18.3-5.8,35.5-11.3,48.7-15.5,13.7-4.3,22.9-7.3,24.6-7.8v18.8c-1.7.5-10.9,3.2-24.6,7.2-13.2,3.9-30.4,8.9-48.7,14.3-17.4,5.1-35.8,10.5-53.1,15.6-16.4,4.8-31.9,9.4-44.9,13.2Z"/>
    <polygon class="st0" points="821.5 949 954.3 985 954.2 1000.4 821.5 967.8 821.5 949"/>
    <path class="st0" d="M650.2,1007.6v-14.7c13-3.3,28.5-7.3,44.9-11.5,17.3-4.4,35.7-9.1,53.1-13.6,18.3-4.7,35.5-9.1,48.7-12.5,13.7-3.5,22.9-5.9,24.6-6.3v18.8c-1.7.4-10.9,2.5-24.6,5.7-13.2,3.1-30.4,7.1-48.7,11.3-17.4,4.1-35.8,8.3-53.1,12.3-16.4,3.8-31.9,7.4-44.9,10.4Z"/>
    <polygon class="st0" points="821.5 997.4 954.2 1024.8 954.2 1040.2 821.4 1016.1 821.5 997.4"/>
    <path class="st0" d="M650.2,1045.5v-14.7c13-2.5,28.5-5.6,44.9-8.8,17.3-3.4,35.7-7,53.1-10.4,18.3-3.6,35.5-6.9,48.7-9.5,13.7-2.7,22.9-4.5,24.6-4.8v18.7c-1.7.3-10.9,1.9-24.6,4.2-13.2,2.3-30.4,5.2-48.7,8.3-17.4,3-35.8,6.1-53.1,9.1-16.4,2.8-31.9,5.5-44.9,7.7Z"/>
    <polygon class="st0" points="821.4 1045.8 954.2 1064.6 954.2 1080 821.4 1064.5 821.4 1045.8"/>
    <path class="st0" d="M650.1,1083.4v-14.7c13-1.7,28.5-3.8,44.9-6,17.3-2.3,35.7-4.8,53.1-7.1,18.3-2.4,35.5-4.7,48.7-6.5,13.7-1.8,22.9-3.1,24.6-3.3v18.7c-1.7.2-10.9,1.2-24.6,2.7-13.2,1.4-30.4,3.3-48.7,5.4-17.4,1.9-35.8,3.9-53.1,5.8-16.4,1.8-31.9,3.5-44.9,4.9Z"/>
    <polygon class="st0" points="821.4 1094.2 954.2 1104.4 954.2 1119.9 821.4 1112.9 821.4 1094.2"/>
    <path class="st0" d="M650.1,1121.2v-14.7c13-.9,28.5-2.1,44.9-3.2,17.3-1.3,35.7-2.6,53.1-3.9,18.3-1.3,35.5-2.6,48.7-3.5,13.7-1,22.9-1.7,24.6-1.8v18.7c-1.7,0-10.9.5-24.6,1.2-13.2.6-30.3,1.5-48.7,2.4-17.4.9-35.8,1.7-53.1,2.6-16.4.8-31.9,1.6-44.9,2.2Z"/>
    <polygon class="st0" points="821.2 1432.8 954 1383.2 954 1398.7 821.2 1451.5 821.2 1432.8"/>
    <path class="st0" d="M650,1386.5v-14.7c13,4.6,28.5,10.1,44.9,16,17.3,6.2,35.7,12.7,53.1,18.9,18.3,6.5,35.5,12.6,48.7,17.3,13.7,4.9,22.9,8.1,24.6,8.7v18.7c-1.7-.6-10.9-4.1-24.6-9.3-13.2-5-30.3-11.5-48.7-18.5-17.4-6.6-35.8-13.6-53.1-20.2-16.4-6.2-31.9-12.1-44.9-17.1Z"/>
    <polygon class="st0" points="821.2 1384.4 954 1343.4 954 1358.8 821.2 1403.1 821.2 1384.4"/>
    <path class="st0" d="M650,1348.6v-14.7c13,3.8,28.5,8.4,44.9,13.2,17.3,5.1,35.7,10.5,53.1,15.7,18.3,5.4,35.5,10.5,48.7,14.4,13.7,4,22.9,6.7,24.6,7.2v18.7c-1.7-.5-10.9-3.5-24.6-7.8-13.2-4.2-30.3-9.7-48.7-15.5-17.4-5.6-35.8-11.4-53.1-16.9-16.4-5.2-31.9-10.2-44.9-14.3Z"/>
    <polygon class="st0" points="821.2 1336 954.1 1303.6 954.1 1319 821.2 1354.8 821.2 1336"/>
    <path class="st0" d="M650,1310.7v-14.7c13,3,28.5,6.7,44.9,10.5,17.3,4,35.7,8.3,53.1,12.4,18.3,4.3,35.5,8.3,48.7,11.4,13.7,3.2,22.9,5.3,24.6,5.7v18.7c-1.7-.4-10.9-2.8-24.6-6.3-13.2-3.4-30.3-7.8-48.7-12.5-17.4-4.5-35.8-9.2-53.1-13.7-16.4-4.2-31.9-8.2-44.9-11.6Z"/>
    <polygon class="st0" points="821.3 1287.7 954.1 1263.7 954.1 1279.2 821.3 1306.4 821.3 1287.7"/>
    <path class="st0" d="M650,1272.8v-14.7c13,2.2,28.5,4.9,44.9,7.7,17.3,3,35.7,6.2,53.1,9.2,18.3,3.2,35.5,6.1,48.7,8.4,13.7,2.4,22.9,3.9,24.6,4.2v18.7c-1.7-.3-10.9-2.1-24.6-4.8-13.2-2.6-30.3-5.9-48.7-9.5-17.4-3.4-35.8-7-53.1-10.4-16.4-3.2-31.9-6.3-44.9-8.8Z"/>
    <polygon class="st0" points="821.3 1239.3 954.1 1223.9 954.1 1239.4 821.3 1258 821.3 1239.3"/>
    <path class="st0" d="M650.1,1234.9v-14.7c13,1.5,28.5,3.2,44.9,5,17.3,1.9,35.7,4,53.1,5.9,18.3,2,35.5,3.9,48.7,5.4,13.7,1.5,22.9,2.5,24.6,2.7v18.7c-1.7-.2-10.9-1.5-24.6-3.3-13.2-1.8-30.3-4.1-48.7-6.6-17.4-2.3-35.8-4.8-53.1-7.2-16.4-2.2-31.9-4.3-44.9-6.1Z"/>
    <polygon class="st0" points="821.3 1190.9 954.1 1184.1 954.1 1199.5 821.3 1209.6 821.3 1190.9"/>
    <path class="st0" d="M650.1,1197v-14.7c13,.7,28.5,1.4,44.9,2.2,17.3.9,35.7,1.8,53.1,2.7,18.3.9,35.5,1.8,48.7,2.4,13.7.7,22.9,1.1,24.6,1.2v18.7c-1.7-.1-10.9-.8-24.6-1.8-13.2-1-30.4-2.2-48.7-3.6-17.4-1.3-35.8-2.7-53.1-3.9-16.4-1.2-31.9-2.4-44.9-3.3Z"/>
    <polygon class="st0" points="821.4 1142.5 954.2 1144.3 954.2 1159.7 821.3 1161.3 821.4 1142.5"/>
    <path class="st0" d="M650.1,1159.1v-14.7c13-.1,28.5-.3,44.9-.5,17.3-.2,35.7-.4,53.1-.6,18.3-.2,35.5-.4,48.7-.6,13.7-.2,22.9-.3,24.6-.3v18.7c-1.7,0-10.9-.1-24.6-.3-13.2-.2-30.3-.4-48.7-.6-17.4-.2-35.8-.4-53.1-.7-16.4-.2-31.9-.4-44.9-.6Z"/>
  </g>
</svg>