<svg fill="none" height="24" viewBox="0 0 24 24" width="24" xmlns="http://www.w3.org/2000/svg"><g clip-rule="evenodd" fill="#000" fill-rule="evenodd"><path d="m1 6.5c0-3.03757 2.46243-5.5 5.5-5.5h11c3.0376 0 5.5 2.46243 5.5 5.5v11c0 3.0376-2.4624 5.5-5.5 5.5h-11c-3.03757 0-5.5-2.4624-5.5-5.5zm5.5-3.5c-1.933 0-3.5 1.567-3.5 3.5v11c0 1.933 1.567 3.5 3.5 3.5h11c1.933 0 3.5-1.567 3.5-3.5v-11c0-1.933-1.567-3.5-3.5-3.5z"/><path d="m12 8c-2.20914 0-4 1.79086-4 4 0 2.2091 1.79086 4 4 4 2.2091 0 4-1.7909 4-4 0-2.20914-1.7909-4-4-4zm-6 4c0-3.31371 2.68629-6 6-6 3.3137 0 6 2.68629 6 6 0 3.3137-2.6863 6-6 6-3.31371 0-6-2.6863-6-6z"/><path d="m16 6c0-1.10457.8954-2 2-2s2 .89543 2 2-.8954 2-2 2-2-.89543-2-2z"/></g></svg>